# xmcd
#
# Track frame offsets:
#	150
#	18946
#	31691
#	47059
#	59109
#	87152
#	108085
#
# Disc length: 1739 seconds
#
# Revision: 1
# Processed by: cddbd v1.5.2PL0 Copyright (c) Steve Scherf et al.
# Submitted via: EasyCDDAExtractor 16.0.6.1
#
DISCID=4d06c907
DTITLE=Country Playground - Turdus Merula
DYEAR=2015
DGENRE=Country
TTITLE0=Grandpa's Grave
TTITLE1=Sand Woman
TTITLE2=My Last Love Song
TTITLE3=Seas of Blood
TTITLE4=Song for Neal
TTITLE5=Down to Mexico
TTITLE6=Golden Field
EXTD=
EXTT0=
EXTT1=
EXTT2=
EXTT3=
EXTT4=
EXTT5=
EXTT6=
PLAYORDER=
